<svg width="80" height="80" viewBox="0 0 80 80" fill="none" xmlns="http://www.w3.org/2000/svg">
<g id="account 1">
<g id="Group">
<path id="Vector" d="M55.925 43.0469C48.8172 43.0469 43.0344 48.8297 43.0344 55.9375C43.0344 63.0453 48.8172 68.8281 55.925 68.8281C63.0328 68.8281 68.8156 63.0453 68.8156 55.9375C68.8156 48.8297 63.0312 43.0469 55.925 43.0469ZM53.4469 63.2844C53.225 63.5312 52.9078 63.6719 52.5765 63.6719H52.5359C52.1906 63.6594 51.8672 63.4953 51.6547 63.2219L45.3594 55.1875C44.9609 54.6781 45.05 53.9406 45.5594 53.5422C46.0687 53.1422 46.8047 53.2313 47.2047 53.7422L52.6406 60.6797L63.425 48.7234C63.8594 48.2437 64.6 48.2047 65.0797 48.6391C65.5609 49.0719 65.5984 49.8125 65.1656 50.2938L53.4469 63.2844Z" fill="#808080"/>
<path id="Vector_2" d="M47.814 68.8282H12.3281C11.6969 68.8282 11.2078 68.2845 11.2625 67.6563C12.5125 53.5923 24.9172 42.5142 39.9859 42.5142C42.4625 42.5142 44.9078 42.8126 47.2781 43.4017C43.3 46.1532 40.689 50.7454 40.689 55.9376C40.6906 61.3595 43.5359 66.1282 47.814 68.8282Z" fill="#808080"/>
<path id="Vector_3" d="M50.2152 35.8843C55.8678 30.2317 55.8678 21.0671 50.2152 15.4145C44.5626 9.76188 35.3979 9.76189 29.7453 15.4145C24.0927 21.0671 24.0927 30.2317 29.7453 35.8843C35.3979 41.5369 44.5626 41.5369 50.2152 35.8843Z" fill="#808080"/>
</g>
</g>
</svg>
