<svg width="24" height="24" viewBox="0 0 24 24" fill="none" xmlns="http://www.w3.org/2000/svg">
<g id="Frame" clip-path="url(#clip0_153_58)">
<path id="Vector" d="M12.0003 9.00024C11.2047 9.00024 10.4416 9.31631 9.87898 9.87892C9.31638 10.4415 9.00031 11.2046 9.00031 12.0002C9.00031 12.7959 9.31638 13.559 9.87898 14.1216C10.4416 14.6842 11.2047 15.0002 12.0003 15.0002C12.796 15.0002 13.559 14.6842 14.1216 14.1216C14.6842 13.559 15.0003 12.7959 15.0003 12.0002C15.0003 11.2046 14.6842 10.4415 14.1216 9.87892C13.559 9.31631 12.796 9.00024 12.0003 9.00024ZM12.0003 7.00024C13.3264 7.00024 14.5982 7.52703 15.5358 8.46471C16.4735 9.40239 17.0003 10.6742 17.0003 12.0002C17.0003 13.3263 16.4735 14.5981 15.5358 15.5358C14.5982 16.4735 13.3264 17.0002 12.0003 17.0002C10.6742 17.0002 9.40245 16.4735 8.46477 15.5358C7.52709 14.5981 7.00031 13.3263 7.00031 12.0002C7.00031 10.6742 7.52709 9.40239 8.46477 8.46471C9.40245 7.52703 10.6742 7.00024 12.0003 7.00024ZM18.5003 6.75024C18.5003 7.08176 18.3686 7.39971 18.1342 7.63413C17.8998 7.86855 17.5818 8.00024 17.2503 8.00024C16.9188 8.00024 16.6008 7.86855 16.3664 7.63413C16.132 7.39971 16.0003 7.08176 16.0003 6.75024C16.0003 6.41872 16.132 6.10078 16.3664 5.86636C16.6008 5.63194 16.9188 5.50024 17.2503 5.50024C17.5818 5.50024 17.8998 5.63194 18.1342 5.86636C18.3686 6.10078 18.5003 6.41872 18.5003 6.75024ZM12.0003 4.00024C9.52631 4.00024 9.12231 4.00724 7.97131 4.05824C7.18731 4.09524 6.6613 4.20024 6.17331 4.39024C5.73931 4.55824 5.42631 4.75924 5.09331 5.09324C4.78031 5.39564 4.53966 5.76483 4.38931 6.17324C4.19931 6.66324 4.09431 7.18824 4.05831 7.97124C4.00631 9.07524 4.00031 9.46124 4.00031 12.0002C4.00031 14.4742 4.00731 14.8782 4.05831 16.0292C4.09531 16.8122 4.20031 17.3392 4.38931 17.8262C4.55931 18.2612 4.75931 18.5742 5.09131 18.9062C5.42831 19.2422 5.74131 19.4432 6.17131 19.6092C6.66531 19.8002 7.19131 19.9062 7.97131 19.9422C9.07531 19.9942 9.46131 20.0002 12.0003 20.0002C14.4743 20.0002 14.8783 19.9932 16.0293 19.9422C16.8113 19.9052 17.3383 19.8002 17.8263 19.6112C18.2593 19.4422 18.5743 19.2412 18.9063 18.9092C19.2433 18.5722 19.4443 18.2592 19.6103 17.8292C19.8003 17.3362 19.9063 16.8092 19.9423 16.0292C19.9943 14.9252 20.0003 14.5392 20.0003 12.0002C20.0003 9.52624 19.9933 9.12224 19.9423 7.97124C19.9053 7.18924 19.8003 6.66124 19.6103 6.17324C19.4596 5.76525 19.2194 5.3962 18.9073 5.09324C18.605 4.78009 18.2358 4.53941 17.8273 4.38924C17.3373 4.19924 16.8113 4.09424 16.0293 4.05824C14.9253 4.00624 14.5393 4.00024 12.0003 4.00024ZM12.0003 2.00024C14.7173 2.00024 15.0563 2.01024 16.1223 2.06024C17.1873 2.11024 17.9123 2.27724 18.5503 2.52524C19.2103 2.77924 19.7663 3.12324 20.3223 3.67824C20.8308 4.17814 21.2243 4.78283 21.4753 5.45024C21.7223 6.08724 21.8903 6.81324 21.9403 7.87824C21.9873 8.94424 22.0003 9.28324 22.0003 12.0002C22.0003 14.7172 21.9903 15.0562 21.9403 16.1222C21.8903 17.1872 21.7223 17.9122 21.4753 18.5502C21.225 19.218 20.8314 19.8229 20.3223 20.3222C19.8223 20.8306 19.2176 21.224 18.5503 21.4752C17.9133 21.7222 17.1873 21.8902 16.1223 21.9402C15.0563 21.9872 14.7173 22.0002 12.0003 22.0002C9.28331 22.0002 8.9443 21.9902 7.8783 21.9402C6.8133 21.8902 6.0883 21.7222 5.4503 21.4752C4.78263 21.2247 4.17783 20.8312 3.67831 20.3222C3.16971 19.8224 2.77624 19.2177 2.52531 18.5502C2.27731 17.9132 2.11031 17.1872 2.06031 16.1222C2.01331 15.0562 2.00031 14.7172 2.00031 12.0002C2.00031 9.28324 2.01031 8.94424 2.06031 7.87824C2.11031 6.81224 2.27731 6.08824 2.52531 5.45024C2.77554 4.78242 3.16911 4.17757 3.67831 3.67824C4.17798 3.16948 4.78273 2.77597 5.4503 2.52524C6.0883 2.27724 6.8123 2.11024 7.8783 2.06024C8.9443 2.01324 9.28331 2.00024 12.0003 2.00024Z" fill="#1E1E1E"/>
</g>
<defs>
<clipPath id="clip0_153_58">
<rect width="24" height="24" fill="white"/>
</clipPath>
</defs>
</svg>
