<svg width="30" height="29" viewBox="0 0 30 29" fill="none" xmlns="http://www.w3.org/2000/svg">
<path id="Star 5" d="M14.4734 1.30996C14.867 0.697195 15.7626 0.697195 16.1562 1.30996L20.5589 8.16449C20.6943 8.37533 20.904 8.52764 21.1463 8.59128L29.0259 10.6603C29.7303 10.8453 30.007 11.6971 29.5459 12.2607L24.3873 18.5661C24.2287 18.7601 24.1486 19.0065 24.163 19.2567L24.6301 27.3899C24.6719 28.117 23.9473 28.6434 23.2687 28.379L15.6779 25.4214C15.4444 25.3305 15.1853 25.3305 14.9518 25.4214L7.36093 28.379C6.68234 28.6434 5.95777 28.117 5.99953 27.3899L6.46667 19.2567C6.48104 19.0065 6.40097 18.7601 6.2423 18.5661L1.08376 12.2607C0.622606 11.6971 0.899368 10.8453 1.60376 10.6603L9.48332 8.59128C9.72568 8.52764 9.93532 8.37533 10.0707 8.16449L14.4734 1.30996Z" fill="#808080"/>
</svg>
