<svg width="80" height="80" viewBox="0 0 80 80" fill="none" xmlns="http://www.w3.org/2000/svg">
<g id="discipline 1">
<g id="_x30_6">
<path id="Vector" d="M52.5 22.5836L41.9702 27.0953C41.3464 27.3639 40.6824 27.5006 40 27.5006C39.3176 27.5006 38.6536 27.3639 38.0273 27.0941L27.5 22.5825V27.5006C27.5 28.4478 28.0347 29.3133 28.8818 29.7369L38.8818 34.7369C39.2334 34.9127 39.6167 35.0006 40 35.0006C40.3833 35.0006 40.7666 34.9127 41.1182 34.7369L51.1182 29.7369C51.9653 29.3133 52.5 28.4478 52.5 27.5006V22.5836Z" fill="#808080"/>
<path id="Vector_2" d="M58.4851 12.7032L40.9851 5.20325C40.3552 4.93225 39.6448 4.93225 39.0149 5.20325L21.5149 12.7032C20.5957 13.0963 20 14.0009 20 15.0006C20 16.0004 20.5957 16.9049 21.5149 17.298L39.0149 24.798C39.3298 24.9335 39.6643 25.0006 40 25.0006C40.3357 25.0006 40.6702 24.9335 40.9851 24.798L55 18.7917V32.5006C55 33.8812 56.1194 35.0006 57.5 35.0006C58.8806 35.0006 60 33.8812 60 32.5006V15.0006C60 14.0009 59.4043 13.0963 58.4851 12.7032Z" fill="#808080"/>
<path id="Vector_3" d="M56.25 37.5C50.2768 37.5 44.968 40.3026 41.5343 44.6539C43.7183 47.9921 45 51.9716 45 56.25C45 60.5284 43.7183 64.5079 41.5343 67.8461C44.968 72.1974 50.2768 75 56.25 75C66.6054 75 75 66.6054 75 56.25C75 45.8946 66.6054 37.5 56.25 37.5ZM64.8218 49.3933L57.3218 61.8933C57.1241 62.2229 56.7847 62.4438 56.4026 62.4902C56.3513 62.4963 56.3001 62.5 56.25 62.5C55.9204 62.5 55.6018 62.3694 55.3662 62.1338L50.3662 57.1338C49.878 56.6455 49.878 55.8545 50.3662 55.3662C50.8545 54.8779 51.6455 54.8779 52.1338 55.3662L56.0022 59.2346L62.6783 48.1067C63.0323 47.5146 63.8013 47.3218 64.3933 47.6782C64.9854 48.0334 65.177 48.8013 64.8218 49.3933Z" fill="#808080"/>
<path id="Vector_4" d="M38.7905 57.755C38.0977 57.755 37.5371 57.194 37.5371 56.5008C37.5371 55.8075 38.0977 55.2466 38.7905 55.2466H42.5C41.9977 45.7438 34.4667 38.1262 25.0034 37.5V41.1994C25.0034 41.8927 24.4428 42.4536 23.75 42.4536C23.0572 42.4536 22.4966 41.8927 22.4966 41.1994V37.5C13.0333 38.1262 5.5023 45.7438 5 55.2466H8.70949C9.40227 55.2466 9.96286 55.8075 9.96286 56.5008C9.96286 57.194 9.40227 57.755 8.70949 57.755H5.02524C5.76056 67.0246 13.1997 74.3848 22.4966 75V71.3006C22.4966 70.6073 23.0572 70.0464 23.75 70.0464C24.4428 70.0464 25.0034 70.6073 25.0034 71.3006V75C34.3003 74.3848 41.7394 67.0246 42.4748 57.755H38.7905ZM32.2726 46.9675L24.7523 57.0013C24.5161 57.3173 24.144 57.5034 23.7498 57.5034H16.2296C15.5368 57.5034 14.9762 56.9425 14.9762 56.2492C14.9762 55.556 15.5368 54.995 16.2296 54.995H23.1232L30.2676 45.4635C30.6826 44.9086 31.4696 44.7984 32.0216 45.2124C32.5761 45.6276 32.6887 46.4139 32.2726 46.9675Z" fill="#808080"/>
</g>
</g>
</svg>
