<svg width="80" height="80" viewBox="0 0 80 80" fill="none" xmlns="http://www.w3.org/2000/svg">
<g id="medal- 1">
<path id="Vector" fill-rule="evenodd" clip-rule="evenodd" d="M40 2.5C56.1656 2.5 69.2703 15.6048 69.2703 31.7703C69.2703 47.9358 56.1656 61.0406 40 61.0406C23.8344 61.0406 10.7297 47.9358 10.7297 31.7703C10.7297 15.6048 23.8344 2.5 40 2.5ZM61.9748 54.715C57.9097 58.6094 52.8116 61.4341 47.1326 62.7367L52.1347 74.3502L57.5351 65.6477L67.5686 67.7025L61.9748 54.715ZM34.395 63.0478C28.6592 62.0269 23.4561 59.4669 19.2278 55.81L12.4316 70.4077L22.5208 68.6448L27.6665 77.5L34.395 63.0478ZM40.4953 21.4636C40.3234 21.0108 39.6767 21.0108 39.5048 21.4636L36.962 28.1611C36.8856 28.3623 36.7076 28.4917 36.4925 28.5022L29.337 28.8509C28.8503 28.8745 28.6511 29.4877 29.0309 29.793L34.6148 34.2811C34.7826 34.4159 34.8506 34.6252 34.7942 34.833L32.9147 41.7461C32.7869 42.2162 33.3083 42.5952 33.7159 42.3283L39.7098 38.4045C39.89 38.2866 40.11 38.2866 40.29 38.4045L46.284 42.3283C46.6917 42.5952 47.2133 42.2162 47.0853 41.7461L45.2058 34.8331C45.1492 34.6253 45.2172 34.4161 45.385 34.2812L50.969 29.7931C51.3487 29.4878 51.1495 28.8748 50.663 28.8511L43.5075 28.5023C43.2923 28.4919 43.1145 28.3625 43.038 28.1612L40.4953 21.4636ZM42.7662 11.075C41.1009 9.82844 38.8991 9.82844 37.2337 11.075C32.8983 14.3203 33.8814 13.9623 28.4742 14.2631C26.3973 14.3786 24.7105 15.7941 24.2361 17.8194C23.0009 23.0922 23.524 22.1859 19.5753 25.8922C18.0586 27.3158 17.6762 29.4842 18.6147 31.3406C21.0578 36.1738 20.8761 35.1434 20.2334 40.5206C19.9866 42.5861 21.0876 44.493 22.9997 45.3119C27.978 47.4439 27.1764 46.7712 30.1405 51.3037C31.2789 53.0447 33.3481 53.7977 35.3394 53.1959C40.5233 51.6292 39.477 51.6292 44.6611 53.1959C46.6522 53.7977 48.7214 53.0445 49.8598 51.3037C52.8239 46.7714 52.0225 47.4439 57.0006 45.3119C58.9128 44.493 60.0137 42.5861 59.7669 40.5206C59.1242 35.1433 58.9425 36.1738 61.3856 31.3406C62.3239 29.4842 61.9415 27.3158 60.425 25.8922C56.4761 22.1861 56.9994 23.0922 55.7642 17.8194C55.2898 15.7941 53.603 14.3787 51.5261 14.2631C46.1186 13.9623 47.1017 14.3202 42.7662 11.075Z" fill="#808080"/>
</g>
</svg>
