<svg width="33" height="32" viewBox="0 0 33 32" fill="none" xmlns="http://www.w3.org/2000/svg">
<g id="Package">
<path id="Vector" d="M29.2295 27.2H18.0295V6.2C18.0295 5.08609 18.472 4.0178 19.2597 3.23015C20.0473 2.4425 21.1156 2 22.2295 2H29.2295C29.6008 2 29.9569 2.1475 30.2195 2.41005C30.482 2.6726 30.6295 3.0287 30.6295 3.4V25.8C30.6295 26.1713 30.482 26.5274 30.2195 26.7899C29.9569 27.0525 29.6008 27.2 29.2295 27.2ZM15.2295 27.2H4.02952C3.65821 27.2 3.30212 27.0525 3.03957 26.7899C2.77702 26.5274 2.62952 26.1713 2.62952 25.8V3.4C2.62952 3.0287 2.77702 2.6726 3.03957 2.41005C3.30212 2.1475 3.65821 2 4.02952 2H11.0295C12.1434 2 13.2117 2.4425 13.9994 3.23015C14.787 4.0178 15.2295 5.08609 15.2295 6.2V27.2ZM15.2295 27.2H18.0295V30H15.2295V27.2Z" fill="#808080"/>
</g>
</svg>
