<svg width="30" height="32" viewBox="0 0 30 32" fill="none" xmlns="http://www.w3.org/2000/svg">
<g id="User">
<path id="Vector" d="M27.1801 26.4988C25.4308 23.2851 22.6293 20.8746 19.3144 19.731C20.9025 18.7231 22.1364 17.187 22.8267 15.3586C23.517 13.5302 23.6255 11.5107 23.1355 9.61014C22.6455 7.70961 21.5841 6.03322 20.1144 4.83844C18.6447 3.64366 16.8479 2.99658 15 2.99658C13.1521 2.99658 11.3553 3.64366 9.8856 4.83844C8.41588 6.03322 7.35452 7.70961 6.86453 9.61014C6.37454 11.5107 6.48302 13.5302 7.17331 15.3586C7.86361 17.187 9.09754 18.7231 10.6856 19.731C7.37082 20.8746 4.56943 23.285 2.82011 26.4986C2.73765 26.6506 2.69418 26.8231 2.69406 26.9987C2.69394 27.1743 2.73719 27.3469 2.81944 27.499C2.90169 27.6511 3.02005 27.7775 3.16261 27.8653C3.30518 27.9531 3.46691 27.9994 3.63155 27.9994L26.3686 27.9996C26.5333 27.9996 26.695 27.9534 26.8376 27.8656C26.9801 27.7777 27.0985 27.6514 27.1808 27.4993C27.263 27.3471 27.3063 27.1746 27.3061 26.9989C27.306 26.8233 27.2625 26.6508 27.1801 26.4988Z" fill="#808080"/>
</g>
</svg>
