<svg width="31" height="31" viewBox="0 0 31 31" fill="none" xmlns="http://www.w3.org/2000/svg">
<g id="Group 37391">
<circle id="Ellipse 1907" cx="15.5" cy="15.5" r="15" fill="white" stroke="#A3BDFF"/>
<path id="Vector" d="M15 13.9783C12.1782 13.9783 11.6064 9.71827 11.6064 9.71827C11.2707 7.50155 12.2901 5 14.9627 5C17.6478 5 18.6671 7.50155 18.3315 9.71827C18.3315 9.71827 17.8218 13.9783 15 13.9783ZM15 17.161L18.3812 14.9071C21.3522 14.9071 24 17.7926 24 20.517V23.6006C24 23.6006 19.4627 25 15 25C10.4627 25 6 23.6006 6 23.6006V20.517C6 17.7306 8.4116 14.969 11.5566 14.969L15 17.161Z" fill="#477BFF"/>
</g>
</svg>
