<svg width="26" height="26" viewBox="0 0 26 26" fill="none" xmlns="http://www.w3.org/2000/svg">
<g id="clarity:export-line" clip-path="url(#clip0_1233_26852)">
<path id="Vector" d="M4.33312 9.82923H9.82923V4.33312H17.3331V10.3853H18.7776V4.33312C18.7776 3.95003 18.6254 3.58263 18.3545 3.31174C18.0836 3.04085 17.7162 2.88867 17.3331 2.88867H7.85034L2.88867 7.85034V21.6665C2.88867 22.0495 3.04085 22.4169 3.31174 22.6878C3.58263 22.9587 3.95003 23.1109 4.33312 23.1109H17.3331C17.7162 23.1109 18.0836 22.9587 18.3545 22.6878C18.6254 22.4169 18.7776 22.0495 18.7776 21.6665H4.33312V9.82923ZM4.33312 8.44256L8.44256 4.33312H8.66645V8.66645H4.33312V8.44256Z" fill="#15254C"/>
<path id="Vector_2" d="M20.4529 11.8084C20.3147 11.6901 20.137 11.6283 19.9552 11.6353C19.7735 11.6423 19.6011 11.7177 19.4724 11.8463C19.3438 11.9749 19.2685 12.1473 19.2614 12.3291C19.2544 12.5109 19.3162 12.6886 19.4346 12.8268L21.7818 15.1668H12.9996C12.808 15.1668 12.6243 15.2429 12.4889 15.3783C12.3534 15.5137 12.2773 15.6974 12.2773 15.889C12.2773 16.0805 12.3534 16.2642 12.4889 16.3997C12.6243 16.5351 12.808 16.6112 12.9996 16.6112H21.8035L19.4346 18.9801C19.359 19.0448 19.2976 19.1245 19.2542 19.2141C19.2109 19.3037 19.1865 19.4013 19.1827 19.5008C19.1788 19.6002 19.1956 19.6994 19.2319 19.7921C19.2682 19.8848 19.3233 19.969 19.3937 20.0393C19.464 20.1097 19.5482 20.1648 19.6409 20.2011C19.7336 20.2374 19.8328 20.2542 19.9322 20.2503C20.0317 20.2465 20.1293 20.2221 20.2189 20.1788C20.3085 20.1354 20.3882 20.074 20.4529 19.9984L24.5551 15.889L20.4529 11.8084Z" fill="#15254C"/>
</g>
<defs>
<clipPath id="clip0_1233_26852">
<rect width="26" height="26" fill="white"/>
</clipPath>
</defs>
</svg>
