<svg width="10" height="9" viewBox="0 0 10 9" fill="none" xmlns="http://www.w3.org/2000/svg">
<path id="Vector" d="M0.46577 4.05171C0.364505 4.15301 0.307617 4.29038 0.307617 4.43361C0.307617 4.57684 0.364505 4.71421 0.46577 4.81551L3.52149 7.87123C3.57132 7.92282 3.63092 7.96397 3.69682 7.99228C3.76273 8.02059 3.83361 8.03549 3.90533 8.03611C3.97705 8.03674 4.04818 8.02307 4.11457 7.99591C4.18095 7.96875 4.24126 7.92864 4.29198 7.87792C4.3427 7.8272 4.3828 7.76689 4.40997 7.70051C4.43712 7.63412 4.45079 7.563 4.45017 7.49127C4.44955 7.41955 4.43464 7.34867 4.40634 7.28277C4.37803 7.21687 4.33687 7.15726 4.28528 7.10743L2.15163 4.97378L9.30504 4.97378C9.44831 4.97378 9.5857 4.91687 9.687 4.81557C9.7883 4.71427 9.84521 4.57687 9.84521 4.43361C9.84521 4.29035 9.7883 4.15296 9.687 4.05166C9.5857 3.95036 9.44831 3.89345 9.30504 3.89345L2.15163 3.89345L4.28528 1.75979C4.38368 1.65791 4.43812 1.52147 4.43689 1.37984C4.43566 1.23821 4.37885 1.10273 4.2787 1.00258C4.17855 0.902425 4.04307 0.845615 3.90144 0.844385C3.75981 0.843154 3.62337 0.8976 3.52149 0.995996L0.46577 4.05171Z" fill="white" fill-opacity="0.3"/>
</svg>
