<svg width="25" height="23" viewBox="0 0 25 23" fill="none" xmlns="http://www.w3.org/2000/svg">
<g id="Group 37377">
<g id="Group 37376">
<path id="Vector" d="M22.6591 20.7703C21.9487 20.154 21.3267 19.4474 20.8099 18.6697C20.2458 17.5961 19.9076 16.4237 19.8154 15.2213V11.6797C19.8202 9.79102 19.1162 7.96564 17.8356 6.54648C16.5549 5.12733 14.7858 4.2121 12.8606 3.97275V3.04791C12.8606 2.79408 12.757 2.55064 12.5726 2.37115C12.3881 2.19166 12.1379 2.09082 11.8771 2.09082C11.6162 2.09082 11.3661 2.19166 11.1816 2.37115C10.9972 2.55064 10.8936 2.79408 10.8936 3.04791V3.98708C8.98562 4.24369 7.23789 5.16446 5.97407 6.57884C4.71025 7.99323 4.01599 9.80539 4.01987 11.6797V15.2213C3.9276 16.4237 3.58946 17.5961 3.02529 18.6697C2.5176 19.4457 1.9056 20.1521 1.20557 20.7703C1.12698 20.8375 1.064 20.9202 1.02081 21.0129C0.977617 21.1056 0.955211 21.2062 0.955078 21.308V22.283C0.955078 22.4731 1.0327 22.6555 1.17086 22.7899C1.30902 22.9244 1.49642 22.9999 1.69181 22.9999H22.1729C22.3683 22.9999 22.5557 22.9244 22.6938 22.7899C22.832 22.6555 22.9096 22.4731 22.9096 22.283V21.308C22.9095 21.2062 22.8871 21.1056 22.8439 21.0129C22.8007 20.9202 22.7377 20.8375 22.6591 20.7703ZM2.48748 21.5661C3.17294 20.9217 3.77646 20.1996 4.2851 19.4153C4.99576 18.1187 5.4104 16.6881 5.5007 15.2213V11.6797C5.47148 10.8395 5.61631 10.0021 5.92656 9.21752C6.23682 8.43292 6.70615 7.71709 7.30661 7.11266C7.90707 6.50823 8.62638 6.02757 9.42171 5.6993C10.217 5.37102 11.0721 5.20185 11.936 5.20185C12.7999 5.20185 13.655 5.37102 14.4504 5.6993C15.2457 6.02757 15.965 6.50823 16.5655 7.11266C17.1659 7.71709 17.6353 8.43292 17.9455 9.21752C18.2558 10.0021 18.4006 10.8395 18.3714 11.6797V15.2213C18.4617 16.6881 18.8763 18.1187 19.587 19.4153C20.0956 20.1996 20.6991 20.9217 21.3846 21.5661H2.48748Z" fill="black"/>
<g id="Group 37375">
<circle id="Ellipse 1896" cx="18.2046" cy="6.79545" r="6.79545" fill="#FF0000"/>
<path id="2" d="M15.9385 9.06091C15.9385 8.82526 15.9596 8.5896 16.0018 8.35395C16.0441 8.11136 16.125 7.87224 16.2447 7.63658C16.3644 7.40093 16.5404 7.17567 16.7727 6.96081C17.0051 6.73901 17.3113 6.53108 17.6915 6.33701C17.8956 6.23305 18.1068 6.13255 18.3251 6.03551C18.5433 5.93155 18.7475 5.82065 18.9376 5.70282C19.1347 5.57806 19.2896 5.43944 19.4022 5.28696C19.5219 5.12754 19.5817 4.94041 19.5817 4.72554C19.5817 4.55227 19.5289 4.38246 19.4233 4.21611C19.3248 4.04977 19.1699 3.91461 18.9587 3.81065C18.7545 3.70668 18.4976 3.6547 18.1878 3.6547C17.9625 3.6547 17.7583 3.68589 17.5753 3.74827C17.3923 3.81065 17.2303 3.89035 17.0895 3.98739C16.9487 4.07749 16.829 4.17106 16.7305 4.2681C16.6319 4.3582 16.551 4.43444 16.4876 4.49682L16.0335 4.00818C16.0687 3.9666 16.1462 3.89382 16.2658 3.78985C16.3926 3.67896 16.551 3.56459 16.741 3.44677C16.9382 3.32894 17.167 3.22844 17.4275 3.14527C17.695 3.06209 17.9871 3.02051 18.3039 3.02051C18.7334 3.02051 19.0995 3.09675 19.4022 3.24923C19.712 3.39478 19.9478 3.59232 20.1097 3.84184C20.2717 4.09135 20.3526 4.36166 20.3526 4.65277C20.3526 4.93694 20.2893 5.18299 20.1625 5.39092C20.0429 5.59192 19.8845 5.76867 19.6873 5.92115C19.4972 6.0667 19.2966 6.19493 19.0854 6.30582C18.8812 6.40979 18.6947 6.49989 18.5257 6.57613C18.1948 6.72862 17.9167 6.8811 17.6915 7.03358C17.4662 7.18606 17.2867 7.34201 17.1529 7.50143C17.0191 7.65391 16.9135 7.80639 16.8361 7.95888C16.7657 8.10443 16.7164 8.25691 16.6882 8.41632H20.4688V9.06091H15.9385Z" fill="white"/>
</g>
</g>
</g>
</svg>
