<svg width="11" height="9" viewBox="0 0 11 9" fill="none" xmlns="http://www.w3.org/2000/svg">
<path id="Vector" d="M10.3584 4.05171C10.4597 4.15301 10.5166 4.29038 10.5166 4.43361C10.5166 4.57684 10.4597 4.71421 10.3584 4.81551L7.30273 7.87123C7.2529 7.92282 7.1933 7.96397 7.12739 7.99228C7.06149 8.02059 6.99061 8.03549 6.91889 8.03611C6.84717 8.03674 6.77604 8.02307 6.70965 7.99591C6.64327 7.96875 6.58296 7.92864 6.53224 7.87792C6.48152 7.8272 6.44141 7.76689 6.41425 7.70051C6.38709 7.63412 6.37343 7.563 6.37405 7.49127C6.37467 7.41955 6.38957 7.34867 6.41788 7.28277C6.44619 7.21687 6.48734 7.15726 6.53894 7.10743L8.67259 4.97378L1.51917 4.97378C1.37591 4.97378 1.23852 4.91687 1.13722 4.81557C1.03592 4.71427 0.979009 4.57687 0.979009 4.43361C0.979009 4.29035 1.03592 4.15296 1.13722 4.05166C1.23852 3.95036 1.37591 3.89345 1.51917 3.89345L8.67259 3.89345L6.53894 1.75979C6.44054 1.65791 6.38609 1.52147 6.38733 1.37984C6.38856 1.23821 6.44536 1.10273 6.54552 1.00258C6.64567 0.902425 6.78115 0.845615 6.92278 0.844385C7.06441 0.843154 7.20085 0.8976 7.30273 0.995996L10.3584 4.05171Z" fill="white"/>
</svg>
