<svg width="34" height="34" viewBox="0 0 34 34" fill="none" xmlns="http://www.w3.org/2000/svg">
<g id="Group 37393">
<circle id="Ellipse 1901" cx="17" cy="17" r="17" fill="#B5CAFF"/>
<g id="Group 37392">
<path id="Vector" d="M10.4381 21.5424H8.63939C8.57347 21.5425 8.50818 21.5296 8.44725 21.5045C8.38632 21.4793 8.33097 21.4424 8.28435 21.3957C8.23774 21.3491 8.20079 21.2938 8.17562 21.2328C8.15046 21.1719 8.13757 21.1066 8.1377 21.0407V9.5017C8.1377 9.22325 8.36143 9 8.63939 9H25.6971C25.9755 9 26.1987 9.22374 26.1987 9.5017V21.0407C26.1987 21.3192 25.975 21.5424 25.6971 21.5424H18.2703" stroke="#1C3166" stroke-linecap="round" stroke-linejoin="round"/>
<path id="Vector_2" d="M14.4301 18.909C16.0926 18.909 17.4403 17.5613 17.4403 15.8988C17.4403 14.2364 16.0926 12.8887 14.4301 12.8887C12.7676 12.8887 11.4199 14.2364 11.4199 15.8988C11.4199 17.5613 12.7676 18.909 14.4301 18.909Z" stroke="#1C3166" stroke-linecap="round" stroke-linejoin="round"/>
<path id="Vector_3" d="M14.053 9V12.9115M19.9556 9V21.5424M26.1987 15.271H17.3773M8.1377 15.271H11.4527M19.9893 18.3529H26.1987M9.38339 25.8945H19.3562C19.8428 17.5181 8.97744 17.1605 9.38339 25.8945Z" stroke="#1C3166" stroke-linecap="round" stroke-linejoin="round"/>
</g>
</g>
</svg>
